<svg xmlns:xlink="http://www.w3.org/1999/xlink" xmlns="http://www.w3.org/2000/svg" viewBox="0 0 370 45.73135120436401" preserveAspectRatio="xMidYMid meet" class="css-f87xc7" id="hffaddeg" width="370"  height="45.73135120436401" ><defs id="SvgjsDefs1001"></defs><g id="SvgjsG1007" featurekey="symbolFeature-0" transform="matrix(0.8135412395778506,0,0,0.8135412395778506,-1.6092162243755577,-13.729006028070463)" fill="#111111"><path xmlns="http://www.w3.org/2000/svg" fill="#111111" d="M22.856,57.874c-0.356,0-0.697-0.181-0.894-0.493C15.105,46.446,8.198,45.201,8.126,45.186  c-0.565-0.093-0.958-0.63-0.873-1.206c0.096-0.573,0.524-1.009,1.201-0.87c0.292,0.042,6.623,1.11,13.378,10.329  C22.107,48,23.605,37.91,30.941,36.268c2.233-0.488,4.284-0.108,6.153,1.133c4.325,2.879,6.783,9.902,8.098,15.48  c1.761-4.261,5.533-11.32,12.616-16.265c0.464-0.32,1.141-0.212,1.469,0.261c0.333,0.48,0.209,1.136-0.264,1.469  c-9.917,6.922-13.036,18.619-13.065,18.738c-0.115,0.465-0.537,0.79-1.017,0.79c-0.015,0-0.028,0-0.043,0  c-0.493-0.021-0.909-0.385-0.997-0.872c-0.754-4.276-3.052-14.576-7.96-17.848c-1.402-0.924-2.879-1.185-4.521-0.836  c-8.203,1.838-7.503,18.286-7.499,18.452c0.023,0.479-0.281,0.908-0.741,1.053C23.068,57.858,22.959,57.874,22.856,57.874z"></path><path xmlns="http://www.w3.org/2000/svg" fill="#111111" d="M81.699,21.994c-2.103-0.865-5.825,0.764-9.81,3.271l-9.029-5.931l-2.538,0.588l7.859,7.845  c-2.282,1.642-4.521,3.411-6.463,5.024l-3.614-1.766l-1.278,0.406l4.049,3.455l1.301,5.169l0.933-0.969l0.028-4.004  c2.303-1.025,4.885-2.247,7.371-3.556l3.52,10.535l1.666-2.014l-1.289-10.716C78.42,26.866,81.531,24.256,81.699,21.994z"></path><path xmlns="http://www.w3.org/2000/svg" fill="#111111" d="M87.594,62.848L71.722,41.945c-0.537-0.705-1.453-0.981-2.295-0.741l-13.794,4.26l-0.181-0.052  c-1.04,1.214-1.957,2.435-2.727,3.636l2.37,0.633l4.093,16.46l-23.972-3.898l3.795-14.496c-0.777-2.458-1.833-4.676-3.214-5.918  l-6.448,1.513c-0.816,1.293-1.389,2.972-1.81,4.753l9.799-2.298l-4.253,16.28l-24.14,3.62l8.064-10.447  c-1.01-1.261-1.97-2.282-2.887-3.15L2.419,67.268c-0.524,0.685-0.589,1.616-0.152,2.355c0.385,0.647,1.074,1.043,1.818,1.043  c0.101,0,0.209-0.011,0.313-0.031l29.226-4.385l26.911,4.385c0.247,0.036,0.479,0.036,0.712-0.008l25.041-4.434  c0.718-0.124,1.322-0.619,1.591-1.301C88.142,64.208,88.038,63.431,87.594,62.848z M61.406,66.322L57.195,49.39l12.063-3.729  l12.897,16.99L61.406,66.322z"></path></g><g id="SvgjsG1008" featurekey="nameFeature-0" transform="matrix(1.1500056434635813,0,0,1.1500056434635813,88.49555507522226,-11.499137374186954)" fill="#111111"><path d="M21.797 29.668 l-0.058594 1.3477 l-14.883 0 c0.23438 3.3398 2.4609 4.9414 5.1367 4.9414 c2.0117 0 3.5742 -0.9375 4.3359 -2.7148 l5.1563 0.76172 c-1.3281 4.0625 -4.9414 6.3867 -9.4531 6.3867 c-6.4844 0 -10.723 -3.8281 -10.723 -10.43 s4.3555 -10.469 10.547 -10.469 c5.6836 0 9.9219 3.1445 9.9414 10.176 z M11.895 23.477 c-2.5586 0 -4.3359 1.1914 -4.8828 3.8672 l9.2188 0 c-0.29297 -2.5586 -2.0313 -3.8672 -4.3359 -3.8672 z M23.3203125 40 l8.2422 -10.059 l-8.2422 -10.02 l7.0313 0 l4.6094 6.3281 l4.6484 -6.3281 l6.9727 0 l-8.2617 10.039 l8.2617 10.039 l-6.9727 0 l-4.6094 -6.2891 l-4.6289 6.2891 l-7.0508 0 z M61.4458125 19.531 c5.293 0 9.668 3.8867 9.668 10.469 s-4.375 10.469 -9.668 10.469 c-2.6172 0 -4.9609 -1.0156 -6.1523 -2.8516 l0 12.148 l-5.625 0 l0 -29.844 l5.332 0 l0.15625 2.6953 c1.1133 -1.9922 3.5547 -3.0859 6.2891 -3.0859 z M60.1758125 35.8008 c2.9492 0 5.3125 -2.1484 5.3125 -5.8008 s-2.3633 -5.8008 -5.3125 -5.8008 c-3.0078 0 -5.3516 2.2852 -5.3516 5.8008 s2.3438 5.8008 5.3516 5.8008 z M75.35160625 40 l0 -30 l5.6836 0 l0 30 l-5.6836 0 z M96.2113125 40.39063 c-6.3867 0 -10.996 -3.8867 -10.996 -10.449 c0 -6.5234 4.5703 -10.41 10.996 -10.41 c6.4648 0 11.016 3.8867 11.016 10.41 c0 6.5625 -4.5703 10.449 -11.016 10.449 z M96.1523125 35.918 c3.2617 0 5.4883 -2.3828 5.4883 -5.9766 s-2.2266 -5.9766 -5.4883 -5.9766 c-3.1445 0 -5.3516 2.3828 -5.3516 5.9766 s2.207 5.9766 5.3516 5.9766 z M116.79689375 23.105 c1.0156 -1.7773 3.6523 -3.418 6.5625 -3.418 l0 5.0195 c-4.2578 0 -6.2891 1.25 -6.2891 5.5078 l0 9.7852 l-5.6641 0 l0 -20.078 l5.3906 0 l0 3.1836 z M145.547 29.668 l-0.058594 1.3477 l-14.883 0 c0.23438 3.3398 2.4609 4.9414 5.1367 4.9414 c2.0117 0 3.5742 -0.9375 4.3359 -2.7148 l5.1563 0.76172 c-1.3281 4.0625 -4.9414 6.3867 -9.4531 6.3867 c-6.4844 0 -10.723 -3.8281 -10.723 -10.43 s4.3555 -10.469 10.547 -10.469 c5.6836 0 9.9219 3.1445 9.9414 10.176 z M135.645 23.477 c-2.5586 0 -4.3359 1.1914 -4.8828 3.8672 l9.2188 0 c-0.29297 -2.5586 -2.0313 -3.8672 -4.3359 -3.8672 z M164.0620625 10 l5.625 0 l0 30 l-5.332 0 l-0.13672 -2.6172 c-1.1523 1.9727 -3.5742 3.0859 -6.3086 3.0859 c-5.293 0 -9.668 -3.9063 -9.668 -10.469 s4.3945 -10.469 9.668 -10.469 c2.6367 0 4.9609 0.99609 6.1523 2.8125 l0 -12.344 z M159.1990625 35.8008 c2.9883 0 5.3125 -2.2852 5.3125 -5.8008 s-2.3438 -5.8203 -5.3125 -5.8203 c-2.9883 0 -5.332 2.207 -5.332 5.8203 c0 3.5938 2.3438 5.8008 5.332 5.8008 z M179.02345625 40.39063 c-1.7383 0 -3.2031 -1.4453 -3.2031 -3.2031 s1.4648 -3.2422 3.2031 -3.2422 c1.7773 0 3.2422 1.4844 3.2422 3.2422 s-1.4648 3.2031 -3.2422 3.2031 z M188.39848125 40 l0 -30 l5.6836 0 l0 30 l-5.6836 0 z M202.7734875 16.914 c-1.7773 0 -3.2617 -1.4453 -3.2617 -3.2422 c0 -1.7773 1.4844 -3.2227 3.2617 -3.2227 c1.7383 0 3.2227 1.4453 3.2227 3.2227 c0 1.7969 -1.4844 3.2422 -3.2227 3.2422 z M199.9023875 40 l0 -20.078 l5.6641 0 l0 20.078 l-5.6641 0 z M222.7145625 14.492 c-1.8555 0 -4.3164 -0.078125 -4.3164 3.2813 l0 2.1484 l4.3164 0 l0 4.3164 l-4.3164 0 l0 15.762 l-5.6055 0 l0 -15.762 l-3.9258 0 l0 -4.3164 l3.9258 0 l0 -2.168 c0 -6.7773 4.1016 -7.7539 9.9219 -7.7539 l0 4.4922 z M244.78528125 29.668 l-0.058594 1.3477 l-14.883 0 c0.23438 3.3398 2.4609 4.9414 5.1367 4.9414 c2.0117 0 3.5742 -0.9375 4.3359 -2.7148 l5.1563 0.76172 c-1.3281 4.0625 -4.9414 6.3867 -9.4531 6.3867 c-6.4844 0 -10.723 -3.8281 -10.723 -10.43 s4.3555 -10.469 10.547 -10.469 c5.6836 0 9.9219 3.1445 9.9414 10.176 z M234.88328125 23.477 c-2.5586 0 -4.3359 1.1914 -4.8828 3.8672 l9.2188 0 c-0.29297 -2.5586 -2.0313 -3.8672 -4.3359 -3.8672 z" fill="#111111"></path></g></svg>