<?xml version="1.0" encoding="utf-8"?>
<!-- Svg Vector Icons : http://www.onlinewebfonts.com/icon -->
<!DOCTYPE svg PUBLIC "-//W3C//DTD SVG 1.1//EN" "http://www.w3.org/Graphics/SVG/1.1/DTD/svg11.dtd">
<svg version="1.1" xmlns="http://www.w3.org/2000/svg" xmlns:xlink="http://www.w3.org/1999/xlink" x="0px" y="0px" viewBox="0 0 1000 1000" enable-background="new 0 0 1000 1000" xml:space="preserve">
<metadata> Svg Vector Icons : http://www.onlinewebfonts.com/icon </metadata>
<g><g transform="translate(0.000000,512.000000) scale(0.100000,-0.100000)"><path d="M4403.7,5094.2c-1110.9-116.9-2077.7-567.2-2870.9-1342.9C414.1,2659.9-92.7,1118.2,166.6-402C326.4-1339.5,763-2189.3,1470.5-2933.8c95.5-101.3,200.7-208.5,231.9-235.8c822.5-715.3,1917.8-1149.9,2948.9-1173.3c235.8-5.8,239.7-5.8,292.4,46.8c72.1,72.1,74.1,179.3,1.9,239.7c-44.8,39-81.9,44.8-282.6,56.5c-691.9,39-1255.2,185.2-1818.4,471.7c-274.8,138.4-686.1,403.5-660.7,422.9c3.9,3.9,327.4,181.2,719.2,393.7c565.2,307.9,730.9,405.4,803,479.5c185.2,189,230,345,230,799.1c0,313.8-1.9,329.4-44.8,382C3684.5-801.6,3464.3-347.4,3372.7,17c-13.6,54.6-39,89.6-79.9,113c-107.2,64.3-116.9,107.2-116.9,547.7v401.5l68.2,76l68.2,74.1V1814c0,645.1,17.5,773.8,130.6,986.2c128.6,239.7,403.4,436.6,727,520.4c493.1,128.6,1208.4,83.8,1594.3-99.4c163.7-78,384-292.4,458-446.3c101.4-212.4,111.1-290.4,111.1-937.5V1241l68.2-72.1c37-39,72.1-99.4,78-134.5c7.8-35.1,9.7-222.2,5.8-417.1c-5.8-407.3-13.6-426.8-183.2-514.5c-152-78-187.1-193-87.7-292.4c70.2-70.2,120.8-70.2,249.5-7.8c113,56.5,235.8,179.3,302.1,306c42.9,81.9,44.8,99.4,44.8,553.5v469.7l-74.1,146.2l-74.1,146.2l3.9,534c3.9,440.5,0,557.4-27.3,662.7c-101.3,411.2-337.2,695.8-744.5,894.6c-313.8,154-617.8,214.4-1066.1,214.4c-951.1,0-1555.3-343-1791.2-1013.5c-40.9-118.9-44.8-161.8-52.6-728.9c-5.9-582.8-7.8-604.2-50.7-672.4c-95.5-154-99.4-181.3-99.4-654.9c0-500.9,7.8-534,152-705.6c44.8-54.6,85.8-140.3,120.8-247.5c68.2-212.5,251.4-590.6,378.1-777.7l99.4-148.1v-296.3c0-343-25.3-424.9-152-510.6c-39-25.3-403.5-228-810.8-450.2c-699.7-382-740.6-401.5-781.6-374.2c-23.4,15.6-120.8,113-216.3,216.3C848.7-1795.6,447.2-768.4,447.2,369.8c0,539.9,64.3,945.3,226.1,1432.5c204.6,613.9,539.9,1165.5,992.1,1633.3c364.5,376.2,734.8,647.1,1194.7,875.1c1013.5,500.9,2206.3,592.5,3307.5,255.3C7481.3,4160.7,8549.3,3108.2,8982,1788.7c138.4-419,200.8-758.2,228-1241.5c11.7-196.8,19.5-237.8,54.6-280.7c60.4-70.2,179.3-68.2,239.7,3.9c39,44.8,44.8,72.1,44.8,212.4c0,627.6-169.6,1321.4-475.6,1951c-465.8,951.1-1245.4,1734.6-2184.9,2192.6c-475.6,230-875.1,354.7-1407.2,438.5C5251.6,5102,4633.7,5117.6,4403.7,5094.2z"/><path d="M5768.1-2799.3v-2066h2066h2066v2066v2066H7834h-2066V-2799.3z M9549.2-2799.3v-1715.1h-769.9h-769.9v1075.9v1077.8l366.4-366.4l364.5-364.5l122.8,122.8L8984-2848l-575,575l-575,575l-575-575l-575-575l120.8-120.8l122.8-122.8l364.5,364.5l366.4,366.4v-1077.8v-1075.9h-769.9h-769.9v1715.1v1715.1H7834h1715.1V-2799.3z"/></g></g>
</svg>